<svg width="32" height="29" viewBox="0 0 32 29" fill="none" xmlns="http://www.w3.org/2000/svg">
<path d="M16 0.5C24.631 0.5 31.4999 6.14003 31.5 12.8887C31.5 19.6374 24.6311 25.2773 16 25.2773C14.0646 25.2773 12.2076 24.9947 10.4922 24.4922L10.2314 24.416L10.0254 24.5938C7.765 26.5424 5.25466 27.5211 3.30176 28.0117C2.50817 28.2111 1.80919 28.3276 1.26074 28.3975C4.25337 25.0954 4.8144 22.8065 4.89844 21.791L4.91992 21.5352L4.72363 21.3682C2.09519 19.1418 0.5 16.1483 0.5 12.8887C0.500147 6.14003 7.36899 0.5 16 0.5Z" fill="white" stroke="black"/>
</svg>
