<svg width="33" height="33" viewBox="0 0 33 33" fill="none" xmlns="http://www.w3.org/2000/svg">
<path id="configs-icon" d="M19.3978 2.16562C18.546 -0.721875 14.454 -0.721875 13.6022 2.16562L13.3959 2.86688C13.2687 3.29916 13.0462 3.69748 12.745 4.03263C12.4437 4.36777 12.0713 4.63123 11.655 4.80369C11.2386 4.97616 10.789 5.05325 10.339 5.02932C9.889 5.00538 9.45006 4.88103 9.05437 4.66538L8.415 4.31475C5.76881 2.87513 2.87512 5.76881 4.31681 8.41294L4.66538 9.05437C5.58525 10.7456 4.71281 12.8514 2.86688 13.3959L2.16562 13.6022C-0.721875 14.454 -0.721875 18.546 2.16562 19.3978L2.86688 19.6041C3.29916 19.7313 3.69748 19.9538 4.03263 20.255C4.36777 20.5563 4.63123 20.9287 4.80369 21.345C4.97616 21.7614 5.05325 22.211 5.02932 22.661C5.00538 23.111 4.88103 23.5499 4.66538 23.9456L4.31475 24.585C2.87513 27.2312 5.76881 30.1249 8.41294 28.6832L9.05437 28.3346C9.45006 28.119 9.889 27.9946 10.339 27.9707C10.789 27.9467 11.2386 28.0238 11.655 28.1963C12.0713 28.3688 12.4437 28.6322 12.745 28.9674C13.0462 29.3025 13.2687 29.7008 13.3959 30.1331L13.6022 30.8344C14.454 33.7219 18.546 33.7219 19.3978 30.8344L19.6041 30.1331C19.7313 29.7008 19.9538 29.3025 20.255 28.9674C20.5563 28.6322 20.9287 28.3688 21.345 28.1963C21.7614 28.0238 22.211 27.9467 22.661 27.9707C23.111 27.9946 23.5499 28.119 23.9456 28.3346L24.585 28.6853C27.2312 30.1249 30.1249 27.2312 28.6832 24.5871L28.3346 23.9456C28.119 23.5499 27.9946 23.111 27.9707 22.661C27.9467 22.211 28.0238 21.7614 28.1963 21.345C28.3688 20.9287 28.6322 20.5563 28.9674 20.255C29.3025 19.9538 29.7008 19.7313 30.1331 19.6041L30.8344 19.3978C33.7219 18.546 33.7219 14.454 30.8344 13.6022L30.1331 13.3959C29.7008 13.2687 29.3025 13.0462 28.9674 12.745C28.6322 12.4437 28.3688 12.0713 28.1963 11.655C28.0238 11.2386 27.9467 10.789 27.9707 10.339C27.9946 9.889 28.119 9.45006 28.3346 9.05437L28.6853 8.415C30.1249 5.76881 27.2312 2.87512 24.5871 4.31681L23.9456 4.66538C23.5499 4.88103 23.111 5.00538 22.661 5.02932C22.211 5.05325 21.7614 4.97616 21.345 4.80369C20.9287 4.63123 20.5563 4.36777 20.255 4.03263C19.9538 3.69748 19.7313 3.29916 19.6041 2.86688L19.3978 2.16562ZM16.5 22.5431C14.8973 22.5431 13.3602 21.9064 12.2269 20.7731C11.0936 19.6398 10.4569 18.1027 10.4569 16.5C10.4569 14.8973 11.0936 13.3602 12.2269 12.2269C13.3602 11.0936 14.8973 10.4569 16.5 10.4569C18.1022 10.4569 19.6388 11.0933 20.7717 12.2263C21.9046 13.3592 22.5411 14.8957 22.5411 16.4979C22.5411 18.1001 21.9046 19.6367 20.7717 20.7696C19.6388 21.9025 18.1022 22.539 16.5 22.539V22.5431Z" fill="black"/>
</svg>
