<svg width="49" height="50" viewBox="0 0 49 50" fill="none" xmlns="http://www.w3.org/2000/svg">
<path d="M48.5 25C48.5 38.5405 37.7454 49.5 24.5 49.5C11.2546 49.5 0.5 38.5405 0.5 25C0.5 11.4595 11.2546 0.5 24.5 0.5C37.7454 0.5 48.5 11.4595 48.5 25Z" fill="#C795E3" stroke="black"/>
<path d="M31.2477 15.1667C33.996 15.1667 36.206 17.1946 36.206 19.6875C36.206 22.1288 34.081 24.118 31.4319 24.2084C31.3185 24.1955 31.191 24.1955 31.0635 24.2084M33.9818 35.8334C35.0018 35.6396 35.9652 35.265 36.7585 34.7096C38.9685 33.1984 38.9685 30.7055 36.7585 29.1942C35.9793 28.6517 35.0302 28.29 34.0244 28.0834M20.9768 24.0405C20.8352 24.0275 20.6652 24.0275 20.5093 24.0405C17.1377 23.9371 14.4602 21.4184 14.4602 18.3184C14.4602 15.1538 17.2652 12.5834 20.7502 12.5834C24.221 12.5834 27.0402 15.1538 27.0402 18.3184C27.026 21.4184 24.3485 23.9371 20.9768 24.0405ZM13.8935 28.8067C10.4652 30.8992 10.4652 34.3092 13.8935 36.3888C17.7893 38.7655 24.1785 38.7655 28.0743 36.3888C31.5027 34.2963 31.5027 30.8863 28.0743 28.8067C24.1927 26.443 17.8035 26.443 13.8935 28.8067Z" stroke="#292D32" stroke-width="1.5" stroke-linecap="round" stroke-linejoin="round"/>
</svg>
