<svg width="34" height="32" viewBox="0 0 34 32" fill="none" xmlns="http://www.w3.org/2000/svg">
<g id="Home 05">
<path id="Icon" d="M28.8734 14.5L26.5625 12.3265V7C26.5625 6.175 25.8453 5.5 24.9688 5.5H23.375C22.4984 5.5 21.7812 6.175 21.7812 7V7.8295L18.5938 4.8325C18.1587 4.4455 17.7602 4 17 4C16.2398 4 15.8413 4.4455 15.4062 4.8325L5.12656 14.5C4.62931 14.9875 4.25 15.343 4.25 16C4.25 16.8445 4.9385 17.5 5.84375 17.5H7.4375V26.5C7.4375 27.325 8.15469 28 9.03125 28H12.2188C13.099 28 13.8125 27.3284 13.8125 26.5V20.5C13.8125 19.675 14.5297 19 15.4062 19H18.5938C19.4703 19 20.1875 19.675 20.1875 20.5V26.5C20.1875 27.3284 20.1042 28 20.9844 28H24.9688C25.8453 28 26.5625 27.325 26.5625 26.5V17.5H28.1562C29.0615 17.5 29.75 16.8445 29.75 16C29.75 15.343 29.3707 14.9875 28.8734 14.5Z" stroke="black" stroke-width="2" stroke-linejoin="round"/>
</g>
</svg>
