<svg width="33" height="33" viewBox="0 0 33 33" fill="none" xmlns="http://www.w3.org/2000/svg">
<path d="M17.9582 3.09386C17.5714 2.7072 17.0469 2.48999 16.5 2.48999C15.9531 2.48999 15.4286 2.7072 15.0418 3.09386L1.3324 16.8012C1.23651 16.8971 1.16046 17.0109 1.10857 17.1362C1.05668 17.2615 1.02997 17.3958 1.02997 17.5314C1.02997 17.667 1.05668 17.8012 1.10857 17.9265C1.16046 18.0518 1.23651 18.1656 1.3324 18.2615C1.52604 18.4551 1.78867 18.5639 2.06252 18.5639C2.19812 18.5639 2.33239 18.5372 2.45766 18.4853C2.58294 18.4334 2.69676 18.3574 2.79265 18.2615L4.12502 16.927V27.8439C4.12502 28.6644 4.45097 29.4513 5.03116 30.0315C5.61135 30.6117 6.39826 30.9376 7.21877 30.9376H25.7813C26.6018 30.9376 27.3887 30.6117 27.9689 30.0315C28.5491 29.4513 28.875 28.6644 28.875 27.8439V16.927L30.2074 18.2615C30.401 18.4551 30.6637 18.5639 30.9375 18.5639C31.2114 18.5639 31.474 18.4551 31.6676 18.2615C31.8613 18.0678 31.9701 17.8052 31.9701 17.5314C31.9701 17.2575 31.8613 16.9949 31.6676 16.8012L26.8125 11.9482V5.15636C26.8125 4.88286 26.7039 4.62056 26.5105 4.42716C26.3171 4.23376 26.0548 4.12511 25.7813 4.12511H23.7188C23.4453 4.12511 23.183 4.23376 22.9896 4.42716C22.7962 4.62056 22.6875 4.88286 22.6875 5.15636V7.82317L17.9582 3.09386ZM26.8125 14.8645V27.8439C26.8125 28.1174 26.7039 28.3797 26.5105 28.5731C26.3171 28.7665 26.0548 28.8751 25.7813 28.8751H7.21877C6.94527 28.8751 6.68296 28.7665 6.48957 28.5731C6.29617 28.3797 6.18752 28.1174 6.18752 27.8439V14.8645L16.5 4.55205L26.8125 14.8645Z" fill="black"/>
</svg>
