<svg width="33" height="29" viewBox="0 0 33 29" fill="none" xmlns="http://www.w3.org/2000/svg">
<path id="like-heart-red" d="M17.6319 27.9066C17.5231 27.9826 17.4275 28.0489 17.345 28.1056L16.8975 27.521L16.8973 27.5209L16.897 27.5204L16.4998 27.8242L16.103 27.5204L15.6559 28.1045C13.0542 26.3076 10.6026 24.3321 8.32173 22.1946C6.39451 20.3768 4.44977 18.2671 2.98312 16.0418C1.5205 13.8208 0.5 11.437 0.5 9.0872C0.5 4.41928 4.36517 0.5 9.30769 0.5C12.0729 0.5 14.5137 1.73692 16.1176 3.6407L16.5 4.09458L16.8824 3.6407C18.4863 1.73688 20.9255 0.5 23.6923 0.5C26.0741 0.5 28.2963 1.17238 29.9252 2.62851C31.5535 4.08584 32.5 6.24987 32.5 9.0872C32.5 11.4371 31.481 13.8226 30.0171 16.0415L30.017 16.0417C28.5503 18.267 26.6056 20.3767 24.6784 22.1929C22.4821 24.2525 20.1271 26.1621 17.6319 27.9066Z" fill="#F93333" stroke="black"/>
</svg>
