<svg width="38" height="34" viewBox="0 0 38 34" fill="none" xmlns="http://www.w3.org/2000/svg">
<rect width="38" height="34" rx="5" fill="#5F5F5F"/>
<path d="M19.5 29.1875C16.1351 29.1875 12.908 27.8508 10.5286 25.4714C8.14921 23.092 6.8125 19.8649 6.8125 16.5C6.8125 13.1351 8.14921 9.90795 10.5286 7.52858C12.908 5.14921 16.1351 3.8125 19.5 3.8125C22.8649 3.8125 26.092 5.14921 28.4714 7.52858C30.8508 9.90795 32.1875 13.1351 32.1875 16.5C32.1875 19.8649 30.8508 23.092 28.4714 25.4714C26.092 27.8508 22.8649 29.1875 19.5 29.1875ZM19.5 31C23.3456 31 27.0338 29.4723 29.753 26.753C32.4723 24.0338 34 20.3456 34 16.5C34 12.6544 32.4723 8.96623 29.753 6.24695C27.0338 3.52767 23.3456 2 19.5 2C15.6544 2 11.9662 3.52767 9.24695 6.24695C6.52767 8.96623 5 12.6544 5 16.5C5 20.3456 6.52767 24.0338 9.24695 26.753C11.9662 29.4723 15.6544 31 19.5 31Z" fill="white"/>
<path fill-rule="evenodd" clip-rule="evenodd" d="M23.5711 7.16073L22.3647 7.96645C22.1538 8.09084 21.9506 8.27769 21.7556 8.52683C21.6309 8.68255 21.4743 8.90815 21.287 9.20398C23.9106 14.824 23.4224 20.1952 19.8229 25.317C20.3692 25.6049 20.6895 26.0566 20.7833 26.6715C20.7988 26.7492 20.7833 26.8116 20.7363 26.8584C20.6896 26.9129 20.627 26.94 20.549 26.94H12.5256C12.4162 26.94 12.3421 26.8855 12.3027 26.7765C12.2793 26.6597 12.3147 26.5703 12.4084 26.508C13.072 26.1187 13.5643 25.6829 13.884 25.2002C14.3214 24.5853 14.5403 23.7796 14.5403 22.7832C14.5403 22.3319 14.5014 21.4327 14.4231 20.086C14.3448 18.9262 14.306 18.0154 14.306 17.3539C14.306 15.7272 14.497 14.2206 14.8798 12.8352C15.3171 11.2862 15.977 10.0643 16.8596 9.16892C16.9063 8.74089 16.9768 8.32046 17.0705 7.90784C17.1717 7.39418 17.41 6.93086 17.7847 6.51838C18.1596 6.07461 18.7259 5.82946 19.4832 5.78274C20.1937 5.72824 20.9593 5.84883 21.7793 6.14468C22.435 6.4092 23.0129 6.6118 23.5128 6.75178C23.5983 6.79071 23.6492 6.85318 23.6646 6.93863C23.6808 7.04003 23.6489 7.11402 23.5711 7.16073ZM22.107 7.59274C22.1224 7.57717 22.3878 7.3943 22.9031 7.04394C22.4112 6.88823 21.982 6.7327 21.6145 6.57681C20.8729 6.29653 20.1743 6.17975 19.5181 6.22646C18.8779 6.27318 18.4129 6.47162 18.1243 6.82198C17.7963 7.19569 17.593 7.58497 17.5148 7.98961C17.4216 8.44896 17.3509 8.88873 17.3044 9.309C17.3044 9.35571 17.2848 9.39844 17.2459 9.43736C16.4021 10.2625 15.7658 11.4379 15.3367 12.9635C14.9542 14.2868 14.7625 15.7501 14.7625 17.3536C14.7625 17.9607 14.7976 18.8598 14.8683 20.0508C14.9542 21.3353 14.9969 22.246 14.9969 22.783C14.9969 23.8648 14.7549 24.7601 14.2707 25.4685C14.0209 25.8344 13.6892 26.169 13.2751 26.4726H20.2682C20.1276 26.0756 19.839 25.7915 19.4016 25.6202C19.3311 25.5968 19.2844 25.5463 19.261 25.4685C19.2455 25.3984 19.2568 25.3323 19.296 25.27C22.9426 20.195 23.4501 14.8665 20.8187 9.2854C20.7947 9.20772 20.7991 9.13367 20.8301 9.0636C20.9943 8.78332 21.1816 8.51082 21.3923 8.24629C21.6188 7.95841 21.8568 7.74069 22.107 7.59274ZM19.155 12.9171C19.171 12.8548 19.2098 12.8083 19.2721 12.7769C19.327 12.7458 19.3855 12.738 19.4478 12.7536C19.5026 12.769 19.5457 12.8081 19.5769 12.8704C19.6082 12.9249 19.6158 12.9832 19.6004 13.0454C19.4598 13.5669 19.4055 14.069 19.4365 14.5517C19.4832 15.0965 19.5887 15.7622 19.7528 16.5482C19.9404 17.3889 29.1157 13.8592 29.1157 15.05C29.1157 15.5403 29.2167 15.1709 29.1157 15.63C28.9048 16.4473 19.0987 22.01 18.6984 22.2459C17.3707 23.025 6.2057 24.8511 10.7007 21.43C17.527 15.92 16.7305 19.7474 16.262 14.2363C16.262 14.1818 16.2816 14.1313 16.3205 14.0846C16.3676 14.0379 16.4222 14.0145 16.4847 14.0145H16.4962C16.6367 14.0145 16.715 14.0846 16.7305 14.2247C16.7853 16.4354 17.0507 18.2763 17.527 19.7474C17.9565 21.0786 18.3511 21.7557 18.7103 21.7791C19.0458 21.7791 19.2883 21.4912 19.4365 20.9151C19.5224 20.5258 19.5651 20.086 19.5651 19.5957C19.5651 18.4514 19.4796 17.4706 19.3074 16.6533C19.1279 15.844 19.0187 15.1549 18.9793 14.5867C18.9326 14.0417 18.9913 13.4852 19.155 12.9171Z" fill="white"/>
</svg>
