<svg width="20" height="20" viewBox="0 0 20 20" fill="none" xmlns="http://www.w3.org/2000/svg">
<path d="M17.9121 15.8926C18.0448 15.8888 18.1729 15.9217 18.2822 15.9834L18.3848 16.0547C18.4795 16.1345 18.545 16.2352 18.5781 16.3438L18.6006 16.4541C18.6152 16.6008 18.5717 16.7498 18.4746 16.873L18.4014 16.9512L16.6602 18.6152V18.6162C16.3685 18.895 16.0208 19.1175 15.6367 19.2695C15.2525 19.4216 14.8399 19.5 14.4229 19.5C14.0056 19.5 13.5923 19.4217 13.208 19.2695C12.9201 19.1555 12.6528 19.0016 12.4141 18.8145L12.1846 18.6162C11.9086 18.3521 11.5555 18.1834 11.1787 18.1289L11.0156 18.1123C10.5784 18.0879 10.1444 18.2179 9.7959 18.4814L9.78516 18.4893L9.77441 18.499L9.65918 18.5957L9.6377 18.6152L9.05273 19.1738C8.9337 19.2872 8.76963 19.357 8.59277 19.3623C8.4599 19.3662 8.33117 19.3333 8.22168 19.2715L8.11914 19.2002C8.02441 19.1203 7.95888 19.0197 7.92578 18.9111L7.90332 18.8008C7.88858 18.653 7.93268 18.5026 8.03125 18.3789L8.10156 18.3027L8.67285 17.7578C8.96461 17.4789 9.31301 17.2557 9.69727 17.1035C10.0814 16.9515 10.4941 16.873 10.9111 16.873C11.3282 16.8731 11.7408 16.9514 12.125 17.1035C12.5093 17.2557 12.8567 17.4789 13.1484 17.7578V17.7568C13.4245 18.0211 13.7782 18.1897 14.1553 18.2441L14.3184 18.2607C14.7554 18.2851 15.1897 18.1551 15.5381 17.8916L15.5488 17.8838L15.5596 17.875L15.6738 17.7773L15.6855 17.7676L15.6963 17.7578L17.4512 16.0811C17.5406 15.9959 17.6556 15.9352 17.7822 15.9082L17.9121 15.8926ZM17.0205 0.500977C17.5794 0.489388 18.1201 0.660518 18.5557 0.978516L18.7363 1.12402C19.1392 1.48275 19.3964 1.95674 19.4746 2.46484L19.4971 2.68457C19.5272 3.27205 19.317 3.85102 18.9053 4.2998L18.7803 4.42871L5.23047 17.3721C5.11304 17.4844 4.97129 17.5737 4.81445 17.6348L4.66113 17.6846L1.36328 18.5811H1.36133C1.27723 18.6041 1.18935 18.6117 1.10254 18.6035L1.01562 18.5898C0.930205 18.5711 0.850945 18.5371 0.78125 18.4912L0.714844 18.4414C0.652171 18.3878 0.602272 18.3247 0.566406 18.2559L0.535156 18.1855C0.501468 18.0932 0.491682 17.995 0.506836 17.8994L0.532227 17.7988L1.46973 14.6494C1.51378 14.5023 1.58766 14.3631 1.68945 14.2412L1.79492 14.1289L15.333 1.19629L15.3359 1.19336C15.7224 0.818143 16.2335 0.579315 16.7832 0.516602L17.0205 0.500977Z" stroke="black"/>
</svg>
