<svg width="20" height="20" viewBox="0 0 20 20" fill="none" xmlns="http://www.w3.org/2000/svg">
<path d="M13.4531 0.734912C13.1766 0.45798 12.8389 0.249682 12.4671 0.12675C12.0954 0.00381843 11.7 -0.0303192 11.3126 0.0270792C10.9253 0.0844775 10.5568 0.231812 10.2368 0.457247C9.91679 0.682681 9.65419 0.979932 9.47009 1.32512L6.09805 7.644L1.40557 9.20622C1.27049 9.25103 1.14913 9.3296 1.05302 9.43446C0.956915 9.53932 0.889252 9.66698 0.856465 9.80532C0.823678 9.94365 0.826857 10.0881 0.865698 10.2248C0.90454 10.3616 0.977755 10.4862 1.07838 10.5867L4.66243 14.1646L0.243721 18.5778L0 20L1.4256 19.7566L5.84264 15.3434L9.42501 18.923C9.52568 19.0235 9.6504 19.0966 9.78734 19.1354C9.92427 19.1742 10.0689 19.1773 10.2074 19.1446C10.3459 19.1119 10.4737 19.0443 10.5787 18.9483C10.6837 18.8523 10.7623 18.7311 10.8072 18.5962L12.3714 13.9112L18.6798 10.5367C19.0236 10.3525 19.3196 10.0905 19.5441 9.77178C19.7685 9.45304 19.9153 9.0863 19.9728 8.70084C20.0302 8.31538 19.9966 7.92185 19.8747 7.55165C19.7528 7.18145 19.546 6.84482 19.2707 6.56862L13.4531 0.734912ZM10.9424 2.10873C11.0038 1.99347 11.0913 1.8942 11.1981 1.81892C11.3048 1.74364 11.4278 1.69444 11.5571 1.6753C11.6864 1.65616 11.8183 1.66761 11.9424 1.70872C12.0664 1.74983 12.179 1.81946 12.2712 1.91199L18.0888 7.74404C18.1808 7.8361 18.2499 7.94838 18.2907 8.0719C18.3315 8.19542 18.3427 8.32676 18.3236 8.4554C18.3044 8.58404 18.2554 8.70643 18.1805 8.81277C18.1055 8.91912 18.0066 9.00646 17.8918 9.06783L11.2913 12.5957C11.1034 12.6965 10.9612 12.8654 10.894 13.0676L9.65204 16.7905L3.21512 10.3616L6.94106 9.12119C7.14409 9.05327 7.31322 8.91001 7.41348 8.72105L10.9424 2.10873Z" fill="black"/>
</svg>
