<svg width="32" height="29" viewBox="0 0 32 29" fill="none" xmlns="http://www.w3.org/2000/svg">
<path id="post-comment-icon" d="M10.4926 24.4924L10.2315 24.4159L10.0255 24.5935C7.76508 26.5423 5.25513 27.5209 3.30217 28.0116C2.50815 28.2111 1.80902 28.3292 1.2604 28.399C4.25384 25.0964 4.81425 22.8068 4.8983 21.7912L4.91952 21.5348L4.72316 21.3685C2.09472 19.1421 0.5 16.1486 0.5 12.8889C0.5 6.14015 7.3689 0.5 16 0.5C24.6311 0.5 31.5 6.14015 31.5 12.8889C31.5 19.6376 24.6311 25.2778 16 25.2778C14.0646 25.2778 12.2079 24.9949 10.4926 24.4924Z" fill="white" stroke="black"/>
</svg>
