<svg width="33" height="33" viewBox="0 0 33 33" fill="none" xmlns="http://www.w3.org/2000/svg">
<path d="M23.0815 21.8077C24.6549 19.6604 25.3596 16.998 25.0547 14.3533C24.7497 11.7086 23.4575 9.27661 21.4367 7.54384C19.4158 5.81107 16.8153 4.90534 14.1554 5.00784C11.4956 5.11034 8.97245 6.21353 7.0909 8.09668C5.20936 9.97984 4.10814 12.5041 4.00755 15.1644C3.90696 17.8247 4.81443 20.425 6.5484 22.4449C8.28237 24.4648 10.715 25.7554 13.3595 26.0585C16.0041 26.3616 18.6655 25.6549 20.8115 24.0797H20.8098C20.8575 24.1447 20.9106 24.207 20.9691 24.2666L27.2251 30.5235C27.5298 30.8284 27.9431 30.9998 28.3742 31C28.8052 31.0002 29.2187 30.829 29.5236 30.5243C29.8285 30.2196 29.9998 29.8062 30 29.3751C30.0002 28.944 29.8291 28.5305 29.5244 28.2255L23.2684 21.9686C23.2103 21.9098 23.1478 21.8571 23.0815 21.8077ZM23.5007 15.5606C23.5007 16.7344 23.2696 17.8967 22.8204 18.9812C22.3713 20.0656 21.713 21.051 20.8831 21.881C20.0532 22.711 19.068 23.3694 17.9837 23.8186C16.8994 24.2678 15.7372 24.499 14.5636 24.499C13.3899 24.499 12.2278 24.2678 11.1435 23.8186C10.0592 23.3694 9.07393 22.711 8.24403 21.881C7.41414 21.051 6.75583 20.0656 6.3067 18.9812C5.85756 17.8967 5.6264 16.7344 5.6264 15.5606C5.6264 13.19 6.56799 10.9164 8.24403 9.24016C9.92008 7.56388 12.1933 6.62216 14.5636 6.62216C16.9338 6.62216 19.207 7.56388 20.8831 9.24016C22.5591 10.9164 23.5007 13.19 23.5007 15.5606Z" fill="black"/>
</svg>
