<svg width="20" height="22" viewBox="0 0 20 22" fill="none" xmlns="http://www.w3.org/2000/svg">
<path d="M1.33325 5.58333H18.6666M7.83325 9.91667V16.4167M12.1666 9.91667V16.4167M2.41659 5.58333L3.49992 18.5833C3.49992 19.158 3.72819 19.7091 4.13452 20.1154C4.54085 20.5217 5.09195 20.75 5.66659 20.75H14.3333C14.9079 20.75 15.459 20.5217 15.8653 20.1154C16.2716 19.7091 16.4999 19.158 16.4999 18.5833L17.5833 5.58333M6.74992 5.58333V2.33333C6.74992 2.04602 6.86406 1.77047 7.06722 1.5673C7.27038 1.36414 7.54593 1.25 7.83325 1.25H12.1666C12.4539 1.25 12.7295 1.36414 12.9326 1.5673C13.1358 1.77047 13.2499 2.04602 13.2499 2.33333V5.58333" stroke="white" stroke-width="2" stroke-linecap="round" stroke-linejoin="round"/>
</svg>
