<svg width="20" height="20" viewBox="0 0 20 20" fill="none" xmlns="http://www.w3.org/2000/svg">
<path d="M0.413138 0.413138C0.543766 0.282179 0.698948 0.178277 0.869793 0.107384C1.04064 0.0364904 1.22379 0 1.40876 0C1.59373 0 1.77689 0.0364904 1.94773 0.107384C2.11858 0.178277 2.27376 0.282179 2.40439 0.413138L9.84626 7.85783L17.2881 0.413138C17.4189 0.282391 17.5741 0.178676 17.7449 0.107916C17.9158 0.037156 18.0989 0.000736266 18.2838 0.000736266C18.4687 0.000736266 18.6518 0.037156 18.8226 0.107916C18.9934 0.178676 19.1486 0.282391 19.2794 0.413138C19.4101 0.543885 19.5138 0.699105 19.5846 0.869934C19.6554 1.04076 19.6918 1.22386 19.6918 1.40876C19.6918 1.59367 19.6554 1.77676 19.5846 1.94759C19.5138 2.11842 19.4101 2.27364 19.2794 2.40439L11.8347 9.84626L19.2794 17.2881C19.4101 17.4189 19.5138 17.5741 19.5846 17.7449C19.6554 17.9158 19.6918 18.0989 19.6918 18.2838C19.6918 18.4687 19.6554 18.6518 19.5846 18.8226C19.5138 18.9934 19.4101 19.1486 19.2794 19.2794C19.1486 19.4101 18.9934 19.5138 18.8226 19.5846C18.6518 19.6554 18.4687 19.6918 18.2838 19.6918C18.0989 19.6918 17.9158 19.6554 17.7449 19.5846C17.5741 19.5138 17.4189 19.4101 17.2881 19.2794L9.84626 11.8347L2.40439 19.2794C2.27364 19.4101 2.11842 19.5138 1.94759 19.5846C1.77676 19.6554 1.59367 19.6918 1.40876 19.6918C1.22386 19.6918 1.04076 19.6554 0.869934 19.5846C0.699105 19.5138 0.543885 19.4101 0.413138 19.2794C0.282391 19.1486 0.178676 18.9934 0.107916 18.8226C0.037156 18.6518 0.000736266 18.4687 0.000736266 18.2838C0.000736266 18.0989 0.037156 17.9158 0.107916 17.7449C0.178676 17.5741 0.282391 17.4189 0.413138 17.2881L7.85783 9.84626L0.413138 2.40439C0.282179 2.27376 0.178277 2.11858 0.107384 1.94773C0.0364904 1.77689 0 1.59373 0 1.40876C0 1.22379 0.0364904 1.04064 0.107384 0.869793C0.178277 0.698948 0.282179 0.543766 0.413138 0.413138Z" fill="black"/>
</svg>
